<?xml version="1.0" encoding="UTF-8"?>
<svg id="Layer_2" data-name="Layer 2" xmlns="http://www.w3.org/2000/svg" viewBox="0 0 801.98 325.07">
  <defs>
    <style>
      .cls-1 {
        fill: #e56142;
      }
    </style>
  </defs>
  <g id="Layer_1-2" data-name="Layer 1">
    <path class="cls-1" d="M800.42,323.67c2.43-17,2.07-34.42-1.49-51.24-3.52-16.62-10.21-32.69-20.25-46.44-9.55-13.07-22.19-23.67-36.74-30.77-14.4-7.02-30.49-10.75-46.54-10.01-8.02.37-16.02,1.82-23.61,4.49-7.8,2.74-15.14,6.67-21.93,11.36-13.59,9.38-24.91,21.6-36.2,33.54-11.63,12.3-23.44,24.37-37.62,33.77-14.54,9.64-30.8,16.58-47.75,20.66-16.87,4.06-34.53,5.08-51.75,2.93s-32.79-7.13-47.71-14.64-28.66-17.46-40.36-29.42c-12.23-12.5-21.82-27.11-29.54-42.75s-14.11-33.25-20.43-50.16c-6.28-16.8-12.79-33.6-21.46-49.34-8.09-14.69-18.21-28.16-30.02-40.06-11.66-11.75-24.82-21.98-38.94-30.6s-29.37-15.7-45.08-21.12c-17.1-5.9-34.86-9.78-52.82-11.89-19.95-2.34-40.14-2.52-60.16-.92-20.3,1.62-40.41,5.02-60.2,9.79-9.49,2.29-18.89,4.9-28.21,7.8-.7.22-2.05.89-1.47,1.81s2.41.61,3.18.37c19.18-5.96,38.74-10.71,58.58-13.87s39.49-4.68,59.36-4.26c19.31.41,38.67,2.71,57.44,7.3,16.04,3.92,31.69,9.49,46.55,16.7,14.82,7.19,28.88,15.99,41.68,26.37,12.71,10.3,24.15,22.21,33.75,35.48,10.28,14.22,18.06,29.97,24.7,46.16s12.63,33.76,19.39,50.46c6.66,16.44,14.31,32.62,24.68,47.08,9.71,13.54,21.77,25.35,35.35,35,13.59,9.66,28.78,17.13,44.74,21.97,16.46,5,33.74,7.12,50.92,6.28,17.79-.87,35.35-4.79,51.86-11.45s31.06-15.71,44.05-27.23,23.27-23.66,34.99-35.4c11.33-11.35,23.78-22,38.73-28.21s30.04-6.73,45.04-3.74,30.08,10.24,42.23,20.21c12.8,10.49,22.62,24.51,29.12,39.67,6.73,15.7,10.1,32.75,10.53,49.8.21,8.25-.28,16.5-1.45,24.67-.28,1.96,4.64,1.49,4.87-.12h0Z"/>
  </g>
</svg>