<?xml version="1.0" encoding="UTF-8"?>
<svg id="Layer_2" data-name="Layer 2" xmlns="http://www.w3.org/2000/svg" viewBox="0 0 185.87 185.86">
  <defs>
    <style>
      .cls-1 {
        fill: #263a72;
      }
    </style>
  </defs>
  <g id="Layer_1-2" data-name="Layer 1">
    <g>
      <path class="cls-1" d="M124.35,30.66c16.8.46,30.4,14.07,30.86,30.86,40.91,3,40.84,59.78,0,62.82-.43,16.72-14.12,30.42-30.86,30.86-3.07,40.9-59.76,40.85-62.82,0-16.81-.47-30.39-14.05-30.86-30.86-40.93-3.01-40.86-59.79,0-62.82.47-16.81,14.05-30.39,30.86-30.86,3.05-40.89,59.77-40.88,62.82,0ZM92.45,59.59c-.39-15.56-14.86-28.94-30.36-28.37-.11,15.97,13.16,29.43,28.87,30.61-15.48,1.59-28.19,13.77-28.88,29.61l-2.39-9.79c-4.72-11.49-15.82-19.57-28.46-19.57-.45,12.86,8.35,24.44,20.15,28.88l8.22,2.23c-15.54,1-28.94,14.87-28.37,30.62,13.63-.03,25.43-9.31,29.34-22.18l1.52-7.19c.64,15.84,13.78,28.39,29.37,29.61-15.93.86-29.49,14.5-29.37,30.61,12.86.45,24.44-8.35,28.88-20.15l2.23-8.22c1,15.54,14.87,28.94,30.62,28.37,0-12.64-8.08-23.74-19.57-28.46l-9.79-2.39c15.84-.64,28.39-13.78,29.61-29.37.86,15.92,14.49,29.48,30.61,29.37.45-12.88-8.3-24.47-20.15-28.88l-8.23-2.22c15.54-1,28.94-14.87,28.37-30.62-12.64,0-23.74,8.11-28.46,19.57l-2.39,9.79c-.64-15.84-13.78-28.39-29.37-29.61,15.95-.83,29.46-14.48,29.37-30.61-13.14-.61-26.05,9.48-29.51,22.01-.55,2-.58,3.66-.87,5.61-.13.87.26.84-.98.75Z"/>
      <path class="cls-1" d="M93.44,64.07c.11,12.6,10.05,24.27,22.02,27.5l6.35,1.61c-11.13.67-20.87,7.69-25.82,17.49l-3.29,10.64c-.87-11.05-7.93-20.76-17.83-25.47l-10.79-3.14c13.84-.82,25.2-11.26,28.15-24.62.31-1.38-.4-4.4,1.22-4Z"/>
    </g>
  </g>
</svg>