<?xml version="1.0" encoding="UTF-8"?>
<svg id="Layer_2" data-name="Layer 2" xmlns="http://www.w3.org/2000/svg" viewBox="0 0 717.67 203.87">
  <defs>
    <style>
      .cls-1 {
        fill: #dd2b64;
      }
    </style>
  </defs>
  <g id="Layer_1-2" data-name="Layer 1">
    <path class="cls-1" d="M2.18,132.95c5.11-10.64,15.82-16.19,26.87-18.77,13.15-3.07,27.28-2.79,40.51-.38,13.74,2.5,26.68,7.74,38.63,14.9,11.6,6.96,22.21,15.38,32.79,23.77s21.12,16.56,32.49,23.74c11.4,7.19,23.42,13.47,36.02,18.26,12.35,4.7,25.31,7.95,38.5,9.02,12.99,1.05,26.08-.13,38.67-3.49,24.57-6.56,46.64-20.48,65.97-36.69,20.88-17.51,38.78-38.15,57.46-57.89,9.64-10.2,19.52-20.2,30.11-29.42,10.11-8.8,20.89-16.79,32.33-23.78,22.71-13.87,47.8-23.82,73.79-29.47,13.04-2.83,26.32-4.57,39.65-5.17,13.1-.59,26.21-.23,39.31-.02,25.32.4,51.6.48,75.57-8.83,5.61-2.18,11.01-4.87,16.14-8.02.14-.08.86-.49.63-.67s-1.27.52-1.42.61c-22.4,13.77-49.49,15.72-75.14,15.76-13.23.02-26.46-.48-39.69-.41s-26.17.87-39.13,2.88c-26.04,4.04-51.4,12.38-74.8,24.46-11.69,6.03-22.92,12.97-33.49,20.8s-21.18,17.24-30.91,26.82c-19.89,19.59-37.85,41.05-58.05,60.33-18.84,17.98-40.18,34.4-64.75,43.66-12.26,4.62-25.2,7.35-38.31,7.64-13.34.29-26.66-1.83-39.42-5.65-26.24-7.86-49.74-22.51-71.19-39.24s-42.07-34.73-68.43-42.48c-13.6-4-27.97-5.34-42.07-3.9-10.95,1.12-22.07,4.29-30.97,10.99-4.14,3.12-7.59,7.04-9.84,11.73-.13.27.85-.16.9-.18.37-.18,1.07-.48,1.27-.88h0Z"/>
  </g>
</svg>