<?xml version="1.0" encoding="UTF-8"?>
<svg id="Layer_2" data-name="Layer 2" xmlns="http://www.w3.org/2000/svg" viewBox="0 0 799.5 323.76">
  <defs>
    <style>
      .cls-1 {
        fill: #206877;
      }
    </style>
  </defs>
  <g id="Layer_1-2" data-name="Layer 1">
    <path class="cls-1" d="M3.99,322.87c-2.42-16.96-2.01-34.35,1.59-51.11,3.56-16.57,10.27-32.56,20.4-46.2,9.7-13.06,22.48-23.52,37.24-30.38s30.18-9.88,45.86-8.42,30.93,8.4,43.75,18.26c13.06,10.04,24.04,22.46,35.39,34.32,11.67,12.21,23.92,23.68,38.41,32.51,14.86,9.05,31.28,15.51,48.3,19.12,17.01,3.61,34.61,4.37,51.84,2.04,16.46-2.22,32.53-7.28,47.38-14.69,14.83-7.4,28.47-17.16,40.21-28.85s21.91-26.38,29.71-41.7c8.12-15.95,14.31-32.78,20.56-49.53s12.58-33.59,20.96-49.45c7.85-14.87,17.7-28.55,29.33-40.69,11.39-11.89,24.35-22.23,38.28-30.99,14.05-8.83,29.13-16.03,44.76-21.56,16.81-5.95,34.25-9.92,51.94-12.11,19.83-2.46,39.92-2.71,59.83-1.17,20.15,1.55,40.15,4.9,59.78,9.65,9.41,2.27,18.74,4.87,27.98,7.74.51.16,1.33.09,1.74-.28.36-.32.39-.71-.14-.88-19.25-5.98-38.89-10.76-58.8-13.97-19.85-3.2-39.98-4.83-60.09-4.47-19.54.35-39.08,2.59-58.11,7.07-16.2,3.81-32.01,9.31-47.05,16.41-14.92,7.04-29.12,15.69-42.08,25.91s-24.62,21.94-34.49,35.1c-10.5,14-18.53,29.55-25.32,45.63-7.03,16.68-12.85,33.82-19.52,50.64-6.64,16.73-14.18,33.25-24.48,48.08-9.59,13.81-21.58,25.89-35.21,35.72s-29.08,17.53-45.3,22.38-33.89,6.88-51.11,5.71-35.08-5.51-51.27-12.65-30.58-16.98-43.33-29.02c-12.09-11.42-22.87-24.15-34.91-35.62s-24.74-21.07-40.15-26.23-31.07-5.2-46.29-1.69-30.15,10.89-42.3,21.16c-12.69,10.74-22.37,24.72-28.84,39.98C3.77,264.37.45,281.42.04,298.46c-.2,8.3.31,16.6,1.49,24.81.12.86,2.59.47,2.47-.4h0Z"/>
  </g>
</svg>