<?xml version="1.0" encoding="UTF-8"?>
<svg id="Layer_2" data-name="Layer 2" xmlns="http://www.w3.org/2000/svg" viewBox="0 0 249.21 249.2">
  <defs>
    <style>
      .cls-1 {
        fill: #dd2b64;
      }
    </style>
  </defs>
  <g id="Layer_1-2" data-name="Layer 1">
    <g>
      <path class="cls-1" d="M166.73,41.11c22.53.62,40.76,18.86,41.37,41.37,54.86,4.02,54.76,80.15,0,84.23-.58,22.42-18.94,40.79-41.37,41.37-4.11,54.84-80.12,54.77-84.23,0-22.54-.63-40.75-18.84-41.37-41.37-54.88-4.03-54.79-80.17,0-84.23.63-22.54,18.84-40.75,41.37-41.37,4.09-54.83,80.14-54.81,84.23,0ZM123.95,79.89c-.52-20.86-19.92-38.8-40.71-38.04-.15,21.41,17.65,39.46,38.71,41.04-20.75,2.13-37.79,18.46-38.72,39.7l-3.21-13.13c-6.33-15.41-21.21-26.23-38.16-26.24-.6,17.24,11.19,32.77,27.02,38.72l11.03,2.98c-20.84,1.34-38.8,19.93-38.04,41.05,18.27-.05,34.1-12.49,39.34-29.74l2.03-9.64c.85,21.24,18.48,38.07,39.38,39.7-21.36,1.15-39.54,19.44-39.38,41.04,17.24.6,32.77-11.19,38.72-27.02l2.98-11.03c1.34,20.84,19.93,38.8,41.05,38.04,0-16.95-10.83-31.83-26.24-38.16l-13.13-3.21c21.24-.85,38.07-18.48,39.7-39.38,1.15,21.35,19.43,39.53,41.04,39.38.6-17.27-11.13-32.81-27.01-38.72l-11.03-2.98c20.84-1.34,38.8-19.93,38.04-41.05-16.95,0-31.83,10.87-38.16,26.24l-3.21,13.13c-.85-21.24-18.48-38.07-39.38-39.7,21.38-1.12,39.5-19.42,39.38-41.04-17.61-.82-34.93,12.72-39.56,29.51-.74,2.69-.78,4.91-1.16,7.52-.17,1.16.35,1.12-1.32,1Z"/>
      <path class="cls-1" d="M125.28,85.9c.15,16.89,13.48,32.54,29.53,36.87l8.52,2.16c-14.92.89-27.99,10.31-34.62,23.44l-4.41,14.27c-1.17-14.81-10.63-27.84-23.91-34.15l-14.47-4.21c18.56-1.1,33.78-15.1,37.74-33,.41-1.85-.54-5.9,1.63-5.37Z"/>
    </g>
  </g>
</svg>