<?xml version="1.0" encoding="UTF-8"?>
<svg id="Layer_2" data-name="Layer 2" xmlns="http://www.w3.org/2000/svg" viewBox="0 0 47.48 57.59">
  <defs>
    <style>
      .cls-1 {
        fill: #fff;
      }

      .cls-2 {
        fill: #f3714a;
      }

      .cls-3 {
        fill: #dd2b64;
      }
    </style>
  </defs>
  <g id="Layer_1-2" data-name="Layer 1">
    <path class="cls-3" d="M20.22,0c-4.92.91-9.52,3.18-13.23,6.55-1.93,1.75-3.66,3.81-4.92,6.1-1.33,2.41-1.59,4.73-1.59,7.43s-.19,5.22,1.52,7.38,4.12,2.31,6.6,1.75c5.75-1.3,10.96-4.3,16.3-6.68s10.96-4.22,16.73-3.45c1.26.17,2.61.41,3.75.99.47.24.91.55,1.2.99.5.76.28,1.89.31-1.12.03-3.27.03-1.59-.23-.69-.64,2.23-2.02,4.18-3.7,5.76-4.08,3.81-9.58,5.19-14.72,6.93s-10.55,4.42-14.63,8.32c-2.01,1.92-3.38,4.2-3.44,7.02s-.63,6.53,1.49,8.69c1.82,1.86,4.82,2,7.13,1.07,2.72-1.1,4.65-3.5,6.29-5.84.29-.41.02-1.99.02-2.5,0-.59,0-1.18,0-1.77,0-.14-.09-.63-.02-.73-2.55,3.65-6.67,7.88-11.58,5.96-.97-.38-1.82-1.02-2.4-1.9-.31-.46-.53-.96-.68-1.49-.07-.23-.08-.49-.16-.72.98,3.16-.28,4.12.1,2.39.54-2.44,2.28-4.4,4.14-5.98,4.15-3.54,9.04-5.95,14.18-7.67s10.2-3.04,14.15-6.66c1.66-1.52,3.03-3.38,3.73-5.53.31-.96.42-1.89.43-2.9.02-1.5.19-3.15-.04-4.63-.39-2.49-3.98-2.86-5.97-3.06-2.71-.27-5.44.05-8.07.69-5.51,1.33-10.49,4.07-15.62,6.39-2.54,1.15-5.13,2.2-7.83,2.91-2.45.65-5.06.93-7-1.02-.82-.82-1.39-1.89-1.7-3-.08-.28-.12-.57-.18-.86-.27-1.32-.36,4.61.09,2.26.14-.76.38-1.49.67-2.2,1.06-2.57,2.86-4.88,4.83-6.83,3.83-3.8,8.76-6.36,14.06-7.34.33-.06-.26-4.95,0-5h0Z"/>
    <g>
      <path class="cls-1" d="M23.01,39.81c-7.88,0-14.26-6.39-14.26-14.26s6.39-14.26,14.26-14.26,14.26,6.38,14.26,14.26c0,7.88-6.38,14.26-14.26,14.26Z"/>
      <path class="cls-3" d="M23.01,39.81c0-7.88,6.38-14.26,14.26-14.26,0,7.88-6.38,14.26-14.26,14.26Z"/>
      <path class="cls-2" d="M8.75,25.55c0-7.88,6.39-14.26,14.26-14.26,0,7.88-6.39,14.26-14.26,14.26Z"/>
      <path class="cls-3" d="M23.01,39.81c-7.88,0-14.26-6.39-14.26-14.26,7.88,0,14.26,6.39,14.26,14.26Z"/>
      <path class="cls-2" d="M37.27,25.55c-7.88,0-14.26-6.38-14.26-14.26,7.88,0,14.26,6.38,14.26,14.26Z"/>
    </g>
  </g>
</svg>