{
	"asset":{
		"generator":"Khronos glTF Blender I/O v3.6.27",
		"version":"2.0"
	},
	"extensionsUsed":[
		"KHR_materials_specular",
		"KHR_materials_ior"
	],
	"scene":0,
	"scenes":[
		{
			"name":"Scene",
			"nodes":[
				0,
				1,
				2,
				3,
				4,
				5,
				6,
				7,
				8,
				9
			]
		}
	],
	"nodes":[
		{
			"mesh":0,
			"name":"shirt",
			"rotation":[
				0.7071068286895752,
				0,
				0,
				0.7071068286895752
			]
		},
		{
			"mesh":1,
			"name":"button",
			"rotation":[
				0.7071068286895752,
				0,
				0,
				0.7071068286895752
			]
		},
		{
			"mesh":2,
			"name":"shirt.001",
			"rotation":[
				0.7071068286895752,
				0,
				0,
				0.7071068286895752
			]
		},
		{
			"mesh":3,
			"name":"shirt.002",
			"rotation":[
				0.7071068286895752,
				0,
				0,
				0.7071068286895752
			]
		},
		{
			"mesh":4,
			"name":"shirt.003",
			"rotation":[
				0.7071068286895752,
				0,
				0,
				0.7071068286895752
			]
		},
		{
			"mesh":5,
			"name":"shirt.004",
			"rotation":[
				0.7071068286895752,
				0,
				0,
				0.7071068286895752
			]
		},
		{
			"mesh":6,
			"name":"shirt.005",
			"rotation":[
				0.7071068286895752,
				0,
				0,
				0.7071068286895752
			]
		},
		{
			"mesh":7,
			"name":"shirt.006",
			"rotation":[
				0.7071068286895752,
				0,
				0,
				0.7071068286895752
			]
		},
		{
			"mesh":8,
			"name":"shirt.007",
			"rotation":[
				0.7071068286895752,
				0,
				0,
				0.7071068286895752
			]
		},
		{
			"mesh":9,
			"name":"shirt.008",
			"rotation":[
				0.7071068286895752,
				0,
				0,
				0.7071068286895752
			]
		}
	],
	"materials":[
		{
			"doubleSided":true,
			"extensions":{
				"KHR_materials_specular":{
					"specularColorFactor":[
						0.17785182815030126,
						0.17785182815030126,
						0.17785182815030126
					]
				},
				"KHR_materials_ior":{
					"ior":1.4500000476837158
				}
			},
			"name":"FABRIC_1_FRONT_175570",
			"pbrMetallicRoughness":{
				"metallicFactor":0,
				"roughnessFactor":0.8304027318954468
			}
		}
	],
	"meshes":[
		{
			"name":"shirt",
			"primitives":[
				{
					"attributes":{
						"POSITION":0,
						"NORMAL":1,
						"TEXCOORD_0":2
					},
					"indices":3,
					"material":0
				}
			]
		},
		{
			"name":"shirt.099",
			"primitives":[
				{
					"attributes":{
						"POSITION":4,
						"NORMAL":5,
						"TEXCOORD_0":6
					},
					"indices":7,
					"material":0
				}
			]
		},
		{
			"name":"shirt.109",
			"primitives":[
				{
					"attributes":{
						"POSITION":8,
						"NORMAL":9,
						"TEXCOORD_0":10
					},
					"indices":11,
					"material":0
				}
			]
		},
		{
			"name":"shirt.110",
			"primitives":[
				{
					"attributes":{
						"POSITION":12,
						"NORMAL":13,
						"TEXCOORD_0":14
					},
					"indices":15,
					"material":0
				}
			]
		},
		{
			"name":"shirt.111",
			"primitives":[
				{
					"attributes":{
						"POSITION":16,
						"NORMAL":17,
						"TEXCOORD_0":18
					},
					"indices":19,
					"material":0
				}
			]
		},
		{
			"name":"shirt.112",
			"primitives":[
				{
					"attributes":{
						"POSITION":20,
						"NORMAL":21,
						"TEXCOORD_0":22
					},
					"indices":23,
					"material":0
				}
			]
		},
		{
			"name":"shirt.113",
			"primitives":[
				{
					"attributes":{
						"POSITION":24,
						"NORMAL":25,
						"TEXCOORD_0":26
					},
					"indices":27,
					"material":0
				}
			]
		},
		{
			"name":"shirt.114",
			"primitives":[
				{
					"attributes":{
						"POSITION":28,
						"NORMAL":29,
						"TEXCOORD_0":30
					},
					"indices":31,
					"material":0
				}
			]
		},
		{
			"name":"shirt.115",
			"primitives":[
				{
					"attributes":{
						"POSITION":32,
						"NORMAL":33,
						"TEXCOORD_0":34
					},
					"indices":35,
					"material":0
				}
			]
		},
		{
			"name":"shirt.116",
			"primitives":[
				{
					"attributes":{
						"POSITION":36,
						"NORMAL":37,
						"TEXCOORD_0":38
					},
					"indices":39,
					"material":0
				}
			]
		}
	],
	"accessors":[
		{
			"bufferView":0,
			"componentType":5126,
			"count":1070,
			"max":[
				0.24425899982452393,
				0.16823899745941162,
				-0.8744850158691406
			],
			"min":[
				-0.014657000079751015,
				-0.03811100125312805,
				-1.6144829988479614
			],
			"type":"VEC3"
		},
		{
			"bufferView":1,
			"componentType":5126,
			"count":1070,
			"type":"VEC3"
		},
		{
			"bufferView":2,
			"componentType":5126,
			"count":1070,
			"type":"VEC2"
		},
		{
			"bufferView":3,
			"componentType":5123,
			"count":6045,
			"type":"SCALAR"
		},
		{
			"bufferView":4,
			"componentType":5126,
			"count":6440,
			"max":[
				0.26610100269317627,
				0.14346900582313538,
				-0.9145209789276123
			],
			"min":[
				-0.2617799937725067,
				-0.008688000030815601,
				-1.5805699825286865
			],
			"type":"VEC3"
		},
		{
			"bufferView":5,
			"componentType":5126,
			"count":6440,
			"type":"VEC3"
		},
		{
			"bufferView":6,
			"componentType":5126,
			"count":6440,
			"type":"VEC2"
		},
		{
			"bufferView":7,
			"componentType":5123,
			"count":29904,
			"type":"SCALAR"
		},
		{
			"bufferView":8,
			"componentType":5126,
			"count":1165,
			"max":[
				0.3174479901790619,
				0.06873299926519394,
				-0.9436609745025635
			],
			"min":[
				0.14306099712848663,
				-0.12333600223064423,
				-1.4625120162963867
			],
			"type":"VEC3"
		},
		{
			"bufferView":9,
			"componentType":5126,
			"count":1165,
			"type":"VEC3"
		},
		{
			"bufferView":10,
			"componentType":5126,
			"count":1165,
			"type":"VEC2"
		},
		{
			"bufferView":11,
			"componentType":5123,
			"count":6495,
			"type":"SCALAR"
		},
		{
			"bufferView":12,
			"componentType":5126,
			"count":1225,
			"max":[
				0.30069801211357117,
				0.09620200097560883,
				-0.8909279704093933
			],
			"min":[
				0.21424899995326996,
				-0.024058999493718147,
				-0.9775360226631165
			],
			"type":"VEC3"
		},
		{
			"bufferView":13,
			"componentType":5126,
			"count":1225,
			"type":"VEC3"
		},
		{
			"bufferView":14,
			"componentType":5126,
			"count":1225,
			"type":"VEC2"
		},
		{
			"bufferView":15,
			"componentType":5123,
			"count":6915,
			"type":"SCALAR"
		},
		{
			"bufferView":16,
			"componentType":5126,
			"count":1070,
			"max":[
				0.028282999992370605,
				0.15681199729442596,
				-0.8738909959793091
			],
			"min":[
				-0.23798500001430511,
				-0.032276999205350876,
				-1.6132899522781372
			],
			"type":"VEC3"
		},
		{
			"bufferView":17,
			"componentType":5126,
			"count":1070,
			"type":"VEC3"
		},
		{
			"bufferView":18,
			"componentType":5126,
			"count":1070,
			"type":"VEC2"
		},
		{
			"bufferView":19,
			"componentType":5123,
			"count":6045,
			"type":"SCALAR"
		},
		{
			"bufferView":20,
			"componentType":5126,
			"count":1162,
			"max":[
				-0.14427800476551056,
				0.07555799931287766,
				-0.9464880228042603
			],
			"min":[
				-0.314054012298584,
				-0.12222500145435333,
				-1.4591779708862305
			],
			"type":"VEC3"
		},
		{
			"bufferView":21,
			"componentType":5126,
			"count":1162,
			"type":"VEC3"
		},
		{
			"bufferView":22,
			"componentType":5126,
			"count":1162,
			"type":"VEC2"
		},
		{
			"bufferView":23,
			"componentType":5123,
			"count":6477,
			"type":"SCALAR"
		},
		{
			"bufferView":24,
			"componentType":5126,
			"count":1221,
			"max":[
				-0.21406500041484833,
				0.09792599827051163,
				-0.8941580057144165
			],
			"min":[
				-0.296425998210907,
				-0.028046000748872757,
				-0.9767510294914246
			],
			"type":"VEC3"
		},
		{
			"bufferView":25,
			"componentType":5126,
			"count":1221,
			"type":"VEC3"
		},
		{
			"bufferView":26,
			"componentType":5126,
			"count":1221,
			"type":"VEC2"
		},
		{
			"bufferView":27,
			"componentType":5123,
			"count":6888,
			"type":"SCALAR"
		},
		{
			"bufferView":28,
			"componentType":5126,
			"count":2314,
			"max":[
				0.25556498765945435,
				0.012807000428438187,
				-0.8489410281181335
			],
			"min":[
				-0.25481298565864563,
				-0.19269700348377228,
				-1.6524460315704346
			],
			"type":"VEC3"
		},
		{
			"bufferView":29,
			"componentType":5126,
			"count":2314,
			"type":"VEC3"
		},
		{
			"bufferView":30,
			"componentType":5126,
			"count":2314,
			"type":"VEC2"
		},
		{
			"bufferView":31,
			"componentType":5123,
			"count":13308,
			"type":"SCALAR"
		},
		{
			"bufferView":32,
			"componentType":5126,
			"count":867,
			"max":[
				0.07439099997282028,
				0.0576150007545948,
				-1.5717049837112427
			],
			"min":[
				-0.07535199820995331,
				-0.07184900343418121,
				-1.6768180131912231
			],
			"type":"VEC3"
		},
		{
			"bufferView":33,
			"componentType":5126,
			"count":867,
			"type":"VEC3"
		},
		{
			"bufferView":34,
			"componentType":5126,
			"count":867,
			"type":"VEC2"
		},
		{
			"bufferView":35,
			"componentType":5123,
			"count":4578,
			"type":"SCALAR"
		},
		{
			"bufferView":36,
			"componentType":5126,
			"count":287,
			"max":[
				0.09752699732780457,
				0.06915000081062317,
				-1.5326919555664062
			],
			"min":[
				-0.09857500344514847,
				-0.08810800313949585,
				-1.6798529624938965
			],
			"type":"VEC3"
		},
		{
			"bufferView":37,
			"componentType":5126,
			"count":287,
			"type":"VEC3"
		},
		{
			"bufferView":38,
			"componentType":5126,
			"count":287,
			"type":"VEC2"
		},
		{
			"bufferView":39,
			"componentType":5123,
			"count":1332,
			"type":"SCALAR"
		}
	],
	"bufferViews":[
		{
			"buffer":0,
			"byteLength":12840,
			"byteOffset":0,
			"target":34962
		},
		{
			"buffer":0,
			"byteLength":12840,
			"byteOffset":12840,
			"target":34962
		},
		{
			"buffer":0,
			"byteLength":8560,
			"byteOffset":25680,
			"target":34962
		},
		{
			"buffer":0,
			"byteLength":12090,
			"byteOffset":34240,
			"target":34963
		},
		{
			"buffer":0,
			"byteLength":77280,
			"byteOffset":46332,
			"target":34962
		},
		{
			"buffer":0,
			"byteLength":77280,
			"byteOffset":123612,
			"target":34962
		},
		{
			"buffer":0,
			"byteLength":51520,
			"byteOffset":200892,
			"target":34962
		},
		{
			"buffer":0,
			"byteLength":59808,
			"byteOffset":252412,
			"target":34963
		},
		{
			"buffer":0,
			"byteLength":13980,
			"byteOffset":312220,
			"target":34962
		},
		{
			"buffer":0,
			"byteLength":13980,
			"byteOffset":326200,
			"target":34962
		},
		{
			"buffer":0,
			"byteLength":9320,
			"byteOffset":340180,
			"target":34962
		},
		{
			"buffer":0,
			"byteLength":12990,
			"byteOffset":349500,
			"target":34963
		},
		{
			"buffer":0,
			"byteLength":14700,
			"byteOffset":362492,
			"target":34962
		},
		{
			"buffer":0,
			"byteLength":14700,
			"byteOffset":377192,
			"target":34962
		},
		{
			"buffer":0,
			"byteLength":9800,
			"byteOffset":391892,
			"target":34962
		},
		{
			"buffer":0,
			"byteLength":13830,
			"byteOffset":401692,
			"target":34963
		},
		{
			"buffer":0,
			"byteLength":12840,
			"byteOffset":415524,
			"target":34962
		},
		{
			"buffer":0,
			"byteLength":12840,
			"byteOffset":428364,
			"target":34962
		},
		{
			"buffer":0,
			"byteLength":8560,
			"byteOffset":441204,
			"target":34962
		},
		{
			"buffer":0,
			"byteLength":12090,
			"byteOffset":449764,
			"target":34963
		},
		{
			"buffer":0,
			"byteLength":13944,
			"byteOffset":461856,
			"target":34962
		},
		{
			"buffer":0,
			"byteLength":13944,
			"byteOffset":475800,
			"target":34962
		},
		{
			"buffer":0,
			"byteLength":9296,
			"byteOffset":489744,
			"target":34962
		},
		{
			"buffer":0,
			"byteLength":12954,
			"byteOffset":499040,
			"target":34963
		},
		{
			"buffer":0,
			"byteLength":14652,
			"byteOffset":511996,
			"target":34962
		},
		{
			"buffer":0,
			"byteLength":14652,
			"byteOffset":526648,
			"target":34962
		},
		{
			"buffer":0,
			"byteLength":9768,
			"byteOffset":541300,
			"target":34962
		},
		{
			"buffer":0,
			"byteLength":13776,
			"byteOffset":551068,
			"target":34963
		},
		{
			"buffer":0,
			"byteLength":27768,
			"byteOffset":564844,
			"target":34962
		},
		{
			"buffer":0,
			"byteLength":27768,
			"byteOffset":592612,
			"target":34962
		},
		{
			"buffer":0,
			"byteLength":18512,
			"byteOffset":620380,
			"target":34962
		},
		{
			"buffer":0,
			"byteLength":26616,
			"byteOffset":638892,
			"target":34963
		},
		{
			"buffer":0,
			"byteLength":10404,
			"byteOffset":665508,
			"target":34962
		},
		{
			"buffer":0,
			"byteLength":10404,
			"byteOffset":675912,
			"target":34962
		},
		{
			"buffer":0,
			"byteLength":6936,
			"byteOffset":686316,
			"target":34962
		},
		{
			"buffer":0,
			"byteLength":9156,
			"byteOffset":693252,
			"target":34963
		},
		{
			"buffer":0,
			"byteLength":3444,
			"byteOffset":702408,
			"target":34962
		},
		{
			"buffer":0,
			"byteLength":3444,
			"byteOffset":705852,
			"target":34962
		},
		{
			"buffer":0,
			"byteLength":2296,
			"byteOffset":709296,
			"target":34962
		},
		{
			"buffer":0,
			"byteLength":2664,
			"byteOffset":711592,
			"target":34963
		}
	],
	"buffers":[
		{
			"byteLength":714256,
			"uri":"SHIRT.bin"
		}
	]
}
